<?xml version="1.0" standalone="no"?>
<!DOCTYPE svg PUBLIC "-//W3C//DTD SVG 20010904//EN"
 "http://www.w3.org/TR/2001/REC-SVG-20010904/DTD/svg10.dtd">
<svg version="1.0" xmlns="http://www.w3.org/2000/svg"
 width="692.000000pt" height="692.000000pt" viewBox="0 0 692.000000 692.000000"
 preserveAspectRatio="xMidYMid meet">
<metadata>
Created by potrace 1.14, written by Peter Selinger 2001-2017
</metadata>
<g transform="translate(0.000000,692.000000) scale(0.100000,-0.100000)"
fill="#000000" stroke="none">
<path d="M3248 6855 c-2 -1 -39 -5 -83 -9 -44 -3 -91 -8 -105 -10 -14 -2 -47
-7 -75 -10 -27 -3 -75 -10 -105 -17 -30 -6 -68 -13 -85 -15 -16 -3 -57 -12
-90 -21 -33 -8 -67 -17 -75 -18 -80 -19 -335 -102 -415 -135 -16 -7 -34 -14
-40 -16 -24 -6 -197 -85 -220 -100 -14 -9 -25 -13 -25 -10 0 3 -17 -4 -37 -17
-21 -13 -54 -31 -73 -40 -19 -10 -53 -29 -75 -43 -22 -13 -55 -32 -72 -41 -18
-9 -33 -20 -33 -25 0 -4 -5 -8 -10 -8 -13 0 -199 -128 -263 -181 -37 -30 -181
-153 -193 -164 -15 -14 -205 -190 -284 -263 l-64 -60 159 -2 c240 -2 473 -8
535 -14 30 -3 80 -7 110 -10 30 -3 82 -10 115 -16 33 -6 75 -13 94 -16 100
-17 231 -52 341 -92 8 -3 20 -6 25 -7 18 -5 159 -69 205 -94 102 -55 189 -120
265 -198 134 -137 200 -244 198 -323 -3 -103 -61 -251 -138 -349 -74 -95 -266
-251 -323 -261 -4 -1 -21 -8 -38 -15 -38 -16 -62 -23 -94 -29 -49 -8 -115 -28
-127 -38 -7 -6 -13 -7 -13 -4 0 4 -16 -5 -35 -20 -54 -41 -46 -63 26 -69 56
-5 95 -26 155 -82 119 -113 200 -247 240 -398 12 -44 11 -246 -1 -300 -7 -30
-10 -55 -7 -55 3 0 1 -5 -6 -12 -7 -7 -12 -18 -12 -26 0 -30 -67 -147 -125
-221 -35 -44 -158 -166 -205 -203 -126 -100 -287 -172 -415 -183 -88 -8 -480
-4 -480 5 0 1 -27 3 -60 5 -65 5 -108 10 -170 19 -114 18 -182 29 -195 32 -8
2 -35 8 -60 14 -65 15 -324 103 -331 113 -6 9 -4 229 6 547 9 295 13 359 30
510 6 57 17 146 20 160 1 8 6 40 11 70 4 30 8 57 9 60 1 3 5 21 9 40 44 205
99 374 171 527 52 110 86 162 151 227 102 101 210 118 281 44 24 -25 28 -38
30 -90 1 -33 -5 -80 -12 -104 -7 -24 -11 -44 -8 -44 3 0 -1 -7 -8 -17 -8 -9
-13 -18 -11 -20 2 -2 -4 -28 -13 -58 -8 -30 -15 -56 -14 -57 2 -2 -4 -14 -11
-28 -8 -14 -15 -29 -16 -35 -1 -5 -11 -41 -22 -80 -19 -67 -46 -179 -57 -237
-3 -16 -7 -38 -9 -50 -3 -13 -7 -39 -10 -58 -3 -19 -8 -46 -10 -60 -2 -14 -7
-47 -10 -75 -3 -27 -8 -59 -10 -71 -2 -11 -7 -54 -10 -95 -3 -41 -9 -105 -12
-144 -12 -152 -14 -206 -16 -350 0 -82 2 -167 6 -188 24 -126 85 -177 236
-195 72 -8 326 -8 415 1 285 27 478 161 564 392 28 74 32 98 36 184 5 123 -32
212 -124 299 -53 49 -180 115 -249 128 -60 12 -196 60 -272 96 -143 69 -217
165 -194 256 13 52 44 64 179 68 293 8 347 15 515 58 145 38 299 154 364 275
119 221 32 381 -258 476 -44 14 -91 28 -105 30 -14 3 -39 7 -56 10 -16 3 -37
8 -45 10 -8 2 -42 7 -75 11 -33 3 -73 8 -90 10 -177 24 -702 23 -821 0 -12 -2
-38 -7 -58 -10 -102 -16 -255 -74 -328 -123 -53 -36 -126 -112 -174 -179 -19
-26 -83 -155 -126 -254 -44 -98 -114 -321 -134 -425 -2 -11 -6 -31 -9 -45 -9
-46 -24 -146 -30 -196 -26 -220 -25 -758 0 -979 3 -22 7 -67 9 -100 3 -33 6
-60 7 -60 0 0 2 -11 3 -25 3 -23 13 -89 22 -135 25 -129 36 -181 54 -240 11
-38 22 -78 25 -88 27 -112 161 -408 254 -561 23 -36 41 -68 41 -70 0 -4 38
-63 119 -186 20 -30 39 -59 44 -65 84 -112 113 -151 117 -155 3 -3 25 -30 50
-60 197 -241 485 -501 741 -669 126 -83 161 -105 169 -106 3 -1 21 -11 40 -23
39 -25 277 -143 294 -146 6 -2 29 -10 51 -20 102 -46 350 -130 418 -142 17 -3
34 -7 39 -10 4 -3 16 -7 25 -9 10 -1 54 -11 98 -20 90 -19 103 -21 160 -30 22
-3 54 -7 70 -10 121 -19 128 -19 315 -30 107 -6 264 -10 280 -6 3 1 55 4 115
6 61 3 130 7 155 10 25 2 72 7 105 11 33 3 69 8 80 10 11 3 36 7 55 9 19 3 46
7 60 10 14 3 40 8 59 11 50 8 57 10 171 39 58 14 112 28 120 30 8 2 65 20 125
40 278 93 549 226 790 388 93 62 284 206 321 242 12 11 48 43 80 72 54 47 189
182 275 275 164 177 357 477 505 787 30 64 60 123 65 131 5 8 12 22 15 30 3 8
22 53 41 100 67 159 116 318 129 415 3 28 8 59 10 70 2 10 6 35 9 55 3 20 7
46 10 58 2 12 2 22 -1 22 -9 0 -129 -83 -132 -92 -2 -4 -8 -8 -13 -8 -6 0 -54
-31 -108 -69 -91 -65 -139 -107 -186 -163 -25 -30 -72 -151 -80 -208 -4 -24
-8 -47 -11 -51 -3 -6 -7 -26 -18 -109 -12 -85 -18 -123 -22 -143 -2 -12 -6
-44 -9 -72 -7 -78 -47 -232 -79 -310 -7 -16 -19 -46 -26 -65 -8 -19 -24 -52
-37 -72 -13 -21 -23 -42 -23 -48 0 -5 -4 -10 -9 -10 -5 0 -13 -9 -16 -20 -10
-33 -138 -154 -198 -189 -74 -42 -143 -62 -230 -65 -108 -4 -234 29 -294 77
-136 109 -189 233 -160 377 17 80 79 216 166 360 39 65 62 99 148 219 36 50
127 158 200 238 163 180 260 309 269 359 12 66 -58 71 -120 8 -55 -56 -112
-76 -201 -73 -209 9 -399 145 -466 337 -38 106 -28 234 35 465 30 108 28 154
-9 207 -31 44 -190 200 -232 227 -16 10 -30 20 -33 24 -3 3 -15 11 -28 18 -18
10 -23 9 -28 -4 -10 -24 2 -134 28 -265 11 -56 14 -211 5 -265 -3 -16 -8 -49
-12 -73 -16 -99 -112 -328 -158 -374 -7 -7 -18 -22 -24 -32 -21 -37 -129 -138
-186 -173 -84 -51 -160 -75 -247 -77 -62 -2 -173 13 -215 28 -5 2 -14 5 -20 6
-15 3 -89 42 -95 49 -15 18 -100 53 -130 53 -49 1 -72 -5 -180 -45 -94 -35
-156 -55 -175 -59 -5 -1 -28 -7 -50 -13 -40 -12 -142 -12 -204 -2 -153 27
-283 240 -346 567 -3 14 -7 36 -10 50 -27 131 -22 465 10 670 2 14 6 45 10 70
9 58 14 89 20 120 22 113 29 144 45 210 11 41 21 86 24 100 2 14 12 50 22 80
9 30 18 62 19 70 2 8 4 16 5 18 2 1 3 5 5 10 1 4 4 14 7 22 3 8 23 65 43 125
45 133 92 244 162 387 49 100 138 257 153 268 3 3 20 25 37 50 17 25 57 72 89
106 216 225 416 286 543 166 45 -44 89 -131 98 -193 11 -85 6 -213 -12 -293
-3 -12 -7 -32 -9 -46 -6 -35 -75 -268 -85 -288 -5 -9 -19 -44 -31 -77 -25 -68
-29 -77 -96 -230 -48 -112 -273 -566 -284 -575 -5 -4 -43 -74 -97 -182 -8 -15
-19 -30 -24 -33 -5 -4 -7 -10 -4 -15 3 -5 1 -11 -4 -14 -8 -5 -95 -172 -96
-186 -1 -3 -8 -18 -17 -35 -21 -40 -89 -224 -94 -255 -3 -14 -7 -32 -11 -40
-11 -27 -12 -161 -1 -191 24 -71 105 -88 224 -49 63 21 132 80 135 115 2 18 4
25 12 45 5 14 17 88 32 210 5 37 16 101 40 220 2 8 4 16 5 18 2 1 4 7 5 12 1
6 4 12 5 15 1 3 3 8 4 13 8 37 35 99 69 161 51 93 213 261 253 261 7 0 14 4
16 9 3 9 180 101 194 101 5 0 21 6 36 14 144 75 459 6 711 -156 32 -21 62 -38
65 -38 4 0 14 -9 22 -20 8 -11 18 -20 22 -20 4 0 19 -10 34 -22 47 -41 168
-118 185 -118 10 0 68 54 130 120 129 138 191 188 292 236 124 58 222 65 308
20 72 -38 127 -55 197 -60 144 -11 206 -96 205 -281 0 -60 -11 -184 -18 -195
-3 -4 -10 -53 -20 -137 -2 -12 -6 -34 -9 -50 -3 -15 -8 -53 -11 -83 -3 -30 -8
-62 -10 -70 -2 -8 -7 -42 -10 -76 -3 -33 -8 -73 -11 -90 -20 -109 -37 -391
-23 -399 27 -17 261 210 385 375 57 75 93 152 102 218 13 97 4 374 -14 467 -4
17 -7 39 -9 50 -1 11 -5 38 -10 60 -4 22 -9 47 -10 55 -2 8 -11 44 -20 80 -9
36 -19 74 -21 85 -6 31 -102 318 -121 361 -9 22 -17 41 -18 44 -8 28 -78 178
-131 283 -71 139 -79 152 -86 155 -5 2 -8 8 -8 13 0 9 -59 109 -70 119 -3 3
-11 17 -19 32 -8 15 -22 37 -33 47 -10 11 -18 23 -18 26 0 3 -28 42 -62 87
-35 44 -67 87 -73 96 -5 9 -19 25 -30 36 -11 12 -35 39 -54 61 -153 182 -403
405 -621 555 -36 25 -67 47 -70 50 -3 3 -16 12 -30 20 -14 8 -64 38 -111 66
-97 59 -319 175 -319 167 0 -3 -6 -1 -12 5 -21 17 -306 131 -368 147 -8 3 -53
16 -100 31 -47 14 -103 30 -125 35 -22 5 -49 11 -60 14 -11 3 -30 7 -43 9 -13
3 -31 7 -40 10 -9 3 -28 7 -42 10 -14 2 -52 9 -85 15 -73 12 -136 22 -190 27
-22 2 -60 7 -85 10 -49 6 -496 14 -502 9z"/>
<path d="M3680 5490 c-21 -21 -41 -48 -45 -60 -3 -11 -11 -20 -16 -20 -5 0 -9
-5 -9 -11 0 -6 -16 -37 -35 -70 -19 -32 -32 -59 -29 -59 2 0 -4 -17 -15 -37
-16 -32 -84 -217 -96 -263 -3 -8 -21 -67 -40 -130 -20 -63 -38 -122 -40 -130
-2 -8 -17 -69 -34 -135 -16 -66 -32 -131 -35 -145 -3 -14 -8 -36 -11 -50 -7
-30 -12 -65 -20 -140 -4 -30 -8 -61 -10 -67 -5 -14 14 -17 31 -5 14 10 73 96
107 157 64 117 210 425 200 425 -3 0 -1 6 5 13 8 10 51 113 57 137 1 3 4 12 7
20 29 73 77 232 93 305 32 139 37 239 15 279 -18 35 -34 33 -80 -14z"/>
<path d="M6005 4087 c-59 -20 -166 -112 -230 -198 -76 -102 -165 -295 -201
-434 -13 -52 -24 -127 -24 -170 0 -149 112 -239 227 -184 58 28 78 57 109 153
37 117 103 363 110 411 1 11 3 20 4 20 2 0 4 8 33 155 50 244 46 272 -28 247z"/>
<path d="M4400 4081 c-143 -44 -287 -254 -329 -481 -9 -51 -8 -245 1 -280 21
-75 34 -104 71 -153 37 -48 75 -67 140 -72 106 -7 182 58 241 208 8 20 13 37
10 37 -3 0 0 8 5 18 5 10 12 38 16 62 3 25 9 54 12 65 3 10 7 86 8 168 3 251
-31 383 -112 425 -24 13 -28 13 -63 3z"/>
<path d="M5849 2257 c-8 -7 -23 -26 -34 -41 -11 -16 -25 -33 -31 -40 -52 -56
-224 -362 -224 -399 0 -9 -4 -18 -9 -21 -5 -3 -12 -23 -16 -43 -5 -21 -10 -45
-12 -53 -4 -16 -6 -51 -4 -88 1 -13 12 -34 25 -47 19 -19 31 -23 62 -19 59 7
98 40 140 118 21 39 39 73 40 76 0 3 6 19 13 35 37 83 64 170 78 244 2 14 6
28 9 32 9 16 15 177 7 213 -9 44 -24 54 -44 33z"/>
</g>
</svg>
