<?xml version="1.0" standalone="no"?>
<!DOCTYPE svg PUBLIC "-//W3C//DTD SVG 20010904//EN"
 "http://www.w3.org/TR/2001/REC-SVG-20010904/DTD/svg10.dtd">
<svg version="1.0" xmlns="http://www.w3.org/2000/svg"
 width="130.000000pt" height="128.000000pt" viewBox="0 0 130.000000 128.000000"
 preserveAspectRatio="xMidYMid meet">

<g transform="translate(0.000000,128.000000) scale(0.100000,-0.100000)"
fill="#5A98E7" stroke="none">
<path d="M493 1260 c-106 -28 -197 -77 -272 -146 l-66 -61 85 -1 c115 -1 211
-31 262 -82 21 -21 38 -47 38 -59 0 -54 -56 -116 -116 -127 -33 -6 -48 -24
-21 -24 23 0 65 -54 72 -92 4 -21 2 -52 -5 -72 -15 -46 -79 -103 -126 -112
-49 -9 -170 1 -219 19 l-40 14 2 99 c3 118 15 187 44 255 24 56 62 81 85 57
10 -10 8 -27 -11 -82 -15 -44 -26 -107 -30 -174 -9 -125 -5 -132 87 -132 70 0
112 19 133 60 32 62 10 113 -58 131 -57 14 -87 35 -87 59 0 18 7 20 55 20 67
0 118 19 140 54 45 68 -13 109 -160 114 -135 5 -189 -14 -222 -78 -42 -83 -56
-163 -50 -290 5 -131 26 -202 85 -298 130 -212 347 -325 595 -309 182 11 339
92 458 234 49 59 116 193 125 252 l7 44 -46 -31 c-47 -33 -50 -39 -63 -137
-14 -104 -69 -164 -140 -150 -36 6 -64 37 -64 69 0 35 41 106 96 166 51 55 65
80 45 80 -6 0 -12 -4 -15 -9 -12 -19 -58 -18 -88 3 -40 27 -50 65 -34 121 13
43 13 44 -20 76 -19 18 -36 31 -38 28 -3 -2 -1 -21 3 -41 21 -93 -41 -198
-117 -198 -21 0 -48 7 -60 16 -21 14 -26 14 -63 0 -81 -33 -116 -11 -139 85
-30 125 38 375 124 458 42 40 77 48 100 22 40 -44 8 -154 -98 -346 -66 -117
-69 -180 -8 -159 24 8 28 16 34 68 10 79 34 116 91 145 43 21 52 22 95 12 26
-7 64 -25 84 -42 20 -16 40 -29 43 -29 3 0 17 13 30 29 33 39 81 58 106 43 10
-7 27 -12 38 -12 31 0 44 -26 38 -73 -4 -23 -11 -73 -16 -112 -5 -38 -7 -72
-4 -75 3 -3 25 17 49 43 40 45 44 53 44 101 0 70 -23 156 -65 241 -130 266
-446 410 -732 335z"/>
<path d="M670 989 c-23 -44 -60 -179 -60 -213 1 -26 55 76 81 153 33 96 18
138 -21 60z"/>
<path d="M801 741 c-52 -52 -51 -163 1 -169 36 -4 58 38 58 111 0 73 -22 95
-59 58z"/>
<path d="M1095 734 c-32 -35 -59 -107 -51 -139 7 -27 36 -34 54 -12 9 10 42
144 42 170 0 15 -22 6 -45 -19z"/>
<path d="M1082 393 c-51 -72 -62 -134 -19 -117 19 7 50 93 45 126 -3 22 -4 22
-26 -9z"/>
</g>
</svg>
